<?xml version="1.0" encoding="UTF-8" standalone="no"?>
<svg xml:space="preserve" height="32" viewBox="0 0 32 31.999997" xmlns:dc="http://purl.org/dc/elements/1.1/" width="32" version="1.1" xmlns:xlink="http://www.w3.org/1999/xlink" xmlns:cc="http://creativecommons.org/ns#" xmlns:rdf="http://www.w3.org/1999/02/22-rdf-syntax-ns#" xmlns="http://www.w3.org/2000/svg" y="0px" x="0px" enable-background="new 0 0 595.275 311.111"><defs>
<linearGradient id="i" y2="-342.41" gradientUnits="userSpaceOnUse" x2="479.69" gradientTransform="matrix(1 0 0 -1 -191.2 -3.189)" y1="-59.078" x1="479.69"><stop stop-color="#BED5E1" offset="0"/><stop stop-color="#567B8F" offset="1"/></linearGradient><linearGradient id="h" y2="-342.41" gradientUnits="userSpaceOnUse" x2="442.41" gradientTransform="matrix(1 0 0 -1 -191.2 -3.189)" y1="-59.077" x1="442.41"><stop stop-color="#BED5E1" offset="0"/><stop stop-color="#567B8F" offset="1"/></linearGradient><linearGradient id="g" y2="-342.42" gradientUnits="userSpaceOnUse" x2="484.42" gradientTransform="matrix(1 0 0 -1 -191.2 -3.189)" y1="-59.077" x1="484.42"><stop stop-color="#BED5E1" offset="0"/><stop stop-color="#567B8F" offset="1"/></linearGradient><linearGradient id="f" y2="-342.41" gradientUnits="userSpaceOnUse" x2="566.53" gradientTransform="matrix(1 0 0 -1 -191.2 -3.189)" y1="-59.078" x1="566.53"><stop stop-color="#BED5E1" offset="0"/><stop stop-color="#567B8F" offset="1"/></linearGradient><linearGradient id="e" y2="-342.41" gradientUnits="userSpaceOnUse" x2="525.69" gradientTransform="matrix(1 0 0 -1 -191.2 -3.189)" y1="-59.078" x1="525.69"><stop stop-color="#BED5E1" offset="0"/><stop stop-color="#567B8F" offset="1"/></linearGradient><linearGradient id="d" y2="-342.42" gradientUnits="userSpaceOnUse" x2="649.63" gradientTransform="matrix(1 0 0 -1 -191.2 -3.189)" y1="-59.075" x1="649.63"><stop stop-color="#BED5E1" offset="0"/><stop stop-color="#567B8F" offset="1"/></linearGradient><linearGradient id="c" y2="-342.41" gradientUnits="userSpaceOnUse" x2="604.36" gradientTransform="matrix(1 0 0 -1 -191.2 -3.189)" y1="-59.077" x1="604.36"><stop stop-color="#BED5E1" offset="0"/><stop stop-color="#567B8F" offset="1"/></linearGradient><linearGradient id="b" y2="-342.42" gradientUnits="userSpaceOnUse" x2="481.96" gradientTransform="matrix(1 0 0 -1 -191.2 -3.189)" y1="-59.074" x1="481.96"><stop stop-color="#BED5E1" offset="0"/><stop stop-color="#567B8F" offset="1"/></linearGradient><linearGradient id="a" y2="-342.41" gradientUnits="userSpaceOnUse" x2="537.97" gradientTransform="matrix(1 0 0 -1 -191.2 -3.189)" y1="-59.077" x1="537.97"><stop stop-color="#BED5E1" offset="0"/><stop stop-color="#567B8F" offset="1"/></linearGradient></defs>
<g transform="matrix(.11862 0 0 .11862 -25.145 1.4822)"><circle d="m 308.82599,78.911003 c 0,11.229054 -9.10295,20.332001 -20.332,20.332001 -11.22906,0 -20.332,-9.102947 -20.332,-20.332001 0,-11.229054 9.10294,-20.332001 20.332,-20.332001 11.22905,0 20.332,9.102947 20.332,20.332001 z" cx="288.49" cy="78.911" r="20.332" fill="url(#i)"/><path fill="#fff" d="m288.49 101.24c-12.314 0-22.332-10.018-22.332-22.332s10.018-22.332 22.332-22.332c12.313 0 22.332 10.018 22.332 22.332s-10.018 22.332-22.332 22.332zm0-40.664c-10.108 0-18.332 8.224-18.332 18.332s8.224 18.332 18.332 18.332 18.332-8.224 18.332-18.332-8.223-18.332-18.332-18.332z"/><circle d="m 288.453,149.577 c 0,20.56818 -16.67381,37.242 -37.242,37.242 -20.56819,0 -37.242,-16.67382 -37.242,-37.242 0,-20.56819 16.67381,-37.242 37.242,-37.242 20.56819,0 37.242,16.67381 37.242,37.242 z" cx="251.21" cy="149.58" r="37.242" fill="url(#h)"/><path fill="#fff" d="m251.21 188.82c-21.638 0-39.242-17.604-39.242-39.242s17.604-39.242 39.242-39.242 39.242 17.604 39.242 39.242c0 21.639-17.604 39.242-39.242 39.242zm0-74.484c-19.433 0-35.242 15.81-35.242 35.242s15.81 35.242 35.242 35.242 35.242-15.81 35.242-35.242-15.809-35.242-35.242-35.242z"/><circle d="m 333.48601,124.796 c 0,22.23553 -18.02547,40.261 -40.261,40.261 -22.23554,0 -40.26101,-18.02547 -40.26101,-40.261 0,-22.23554 18.02547,-40.261004 40.26101,-40.261004 22.23553,0 40.261,18.025464 40.261,40.261004 z" cx="293.23" cy="124.8" r="40.261" fill="url(#g)"/><path fill="#fff" d="m293.22 167.06c-23.303 0-42.261-18.958-42.261-42.262 0-23.303 18.958-42.261 42.261-42.261s42.261 18.958 42.261 42.261c0 23.304-18.958 42.262-42.261 42.262zm0-80.522c-21.097 0-38.261 17.164-38.261 38.261 0 21.098 17.164 38.262 38.261 38.262s38.261-17.164 38.261-38.262-17.164-38.261-38.261-38.261z"/><circle d="m 412.57602,108.472 c 0,20.56819 -16.67382,37.242 -37.24201,37.242 -20.56818,0 -37.242,-16.67381 -37.242,-37.242 0,-20.568189 16.67382,-37.242 37.242,-37.242 20.56819,0 37.24201,16.673811 37.24201,37.242 z" cx="375.33" cy="108.47" r="37.242" fill="url(#f)"/><path fill="#fff" d="m375.33 147.71c-21.639 0-39.242-17.604-39.242-39.241 0-21.638 17.604-39.242 39.242-39.242s39.242 17.604 39.242 39.242c0 21.637-17.603 39.241-39.242 39.241zm0-74.484c-19.433 0-35.242 15.81-35.242 35.242s15.81 35.241 35.242 35.241 35.242-15.809 35.242-35.241-15.809-35.242-35.242-35.242z"/><circle d="m 371.73401,79.503998 c 0,20.567632 -16.67336,37.241002 -37.241,37.241002 -20.56764,0 -37.241,-16.67337 -37.241,-37.241002 0,-20.567637 16.67336,-37.241001 37.241,-37.241001 20.56764,0 37.241,16.673364 37.241,37.241001 z" cx="334.49" cy="79.504" r="37.241" fill="url(#e)"/><path fill="#fff" d="m334.49 118.74c-21.638 0-39.241-17.604-39.241-39.241s17.604-39.24 39.241-39.24 39.241 17.603 39.241 39.24-17.603 39.241-39.241 39.241zm0-74.482c-19.432 0-35.241 15.809-35.241 35.24 0 19.432 15.81 35.241 35.241 35.241s35.241-15.809 35.241-35.241c0-19.431-15.809-35.24-35.241-35.24z"/><circle d="m 479.727,163.95799 c 0,11.76367 -9.53633,21.3 -21.3,21.3 -11.76366,0 -21.3,-9.53633 -21.3,-21.3 0,-11.76366 9.53634,-21.3 21.3,-21.3 11.76367,0 21.3,9.53634 21.3,21.3 z" cx="458.43" cy="163.96" r="21.3" fill="url(#d)"/><path fill="#fff" d="m458.43 187.26c-12.848 0-23.3-10.452-23.3-23.3s10.452-23.3 23.3-23.3 23.3 10.452 23.3 23.3-10.453 23.3-23.3 23.3zm0-42.6c-10.642 0-19.3 8.658-19.3 19.3s8.658 19.3 19.3 19.3 19.3-8.658 19.3-19.3-8.659-19.3-19.3-19.3z"/><circle d="m 453.424,147.563 c 0,22.23554 -18.02547,40.26101 -40.26101,40.26101 -22.23553,0 -40.261,-18.02547 -40.261,-40.26101 0,-22.23553 18.02547,-40.261 40.261,-40.261 22.23554,0 40.26101,18.02547 40.26101,40.261 z" cx="413.16" cy="147.56" r="40.261" fill="url(#c)"/><path fill="#fff" d="m413.16 189.82c-23.303 0-42.261-18.958-42.261-42.261s18.958-42.262 42.261-42.262 42.261 18.958 42.261 42.262c0 23.303-18.958 42.261-42.261 42.261zm0-80.522c-21.097 0-38.261 17.164-38.261 38.262 0 21.097 17.164 38.261 38.261 38.261s38.261-17.164 38.261-38.261c0-21.098-17.164-38.262-38.261-38.262z"/><circle d="m 312.06099,166.011 c 0,11.76311 -9.53588,21.299 -21.299,21.299 -11.76311,0 -21.299,-9.53589 -21.299,-21.299 0,-11.76311 9.53589,-21.299 21.299,-21.299 11.76312,0 21.299,9.53589 21.299,21.299 z" cx="290.76" cy="166.01" r="21.299" fill="url(#b)"/><path fill="#fff" d="m290.76 189.31c-12.847 0-23.299-10.452-23.299-23.3 0-12.847 10.452-23.299 23.299-23.299s23.298 10.452 23.298 23.299c0.001 12.848-10.451 23.3-23.298 23.3zm0-42.598c-10.642 0-19.299 8.657-19.299 19.299s8.658 19.3 19.299 19.3 19.298-8.658 19.298-19.3-8.657-19.299-19.298-19.299z"/><path fill="url(#a)" d="m398.11 135.67c0 28.349-22.984 51.328-51.334 51.328-28.351 0-51.333-22.979-51.333-51.328 0-28.351 22.984-51.333 51.333-51.333s51.334 22.982 51.334 51.333z"/><path fill="#fff" d="m346.77 189c-29.408 0-53.333-23.923-53.333-53.328 0-29.408 23.925-53.333 53.333-53.333s53.334 23.925 53.334 53.333c0 29.405-23.925 53.328-53.334 53.328zm0-102.66c-27.202 0-49.333 22.131-49.333 49.333 0 27.199 22.131 49.328 49.333 49.328 27.203 0 49.334-22.129 49.334-49.328 0-27.202-22.13-49.333-49.334-49.333z"/></g></svg>
