<?xml version="1.0" encoding="utf-8"?>
<!-- Generator: Adobe Illustrator 24.2.0, SVG Export Plug-In . SVG Version: 6.00 Build 0)  -->
<svg version="1.1" id="Layer_1" xmlns="http://www.w3.org/2000/svg" xmlns:xlink="http://www.w3.org/1999/xlink" x="0px" y="0px"
	 viewBox="0 0 51 28" style="enable-background:new 0 0 51 28;" xml:space="preserve">
<style type="text/css">
	.st0{display:none;}
	.st1{display:inline;fill:#CE5757;}
	.st2{fill:#E76E34;}
	.st3{fill:#567B8F;}
	.st4{fill:url(#SVGID_1_);}
</style>
<g id="Ebene_1" xmlns:cc="http://creativecommons.org/ns#" xmlns:dc="http://purl.org/dc/elements/1.1/" xmlns:rdf="http://www.w3.org/1999/02/22-rdf-syntax-ns#" class="st0">
	<path class="st1" d="M23.1,0.5c-3.7,0-6.7,3-6.7,6.7c0,1.5,0.5,2.9,1.4,4.1c1.9-2.2,4.6-3.5,7.7-3.5c1.5,0,2.9,0.3,4.2,0.9
		c0.1-0.5,0.2-1,0.2-1.5C29.9,3.5,26.9,0.5,23.1,0.5L23.1,0.5z M14.4,3.6c-1.9,0-3.5,1.6-3.5,3.5c0,0.6,0.2,1.2,0.4,1.7
		c1.2-0.7,2.5-1,4-1c0.1,0,0.3,0,0.4,0c0-0.2,0-0.4,0-0.6c0-1.1,0.2-2.1,0.6-3C15.7,3.8,15.1,3.6,14.4,3.6L14.4,3.6z M30.9,6
		c-0.1,0-0.3,0-0.4,0c0.1,0.4,0.1,0.8,0.1,1.2c0,0.6-0.1,1.2-0.2,1.8c1.7,0.9,3.1,2.3,4,4.1c1-0.5,2-0.8,3.2-0.9
		C37.3,8.7,34.5,6,30.9,6L30.9,6z M25.5,8.5c-5.2,0-9.4,4.2-9.4,9.4s4.2,9.4,9.4,9.4s9.4-4.2,9.4-9.4S30.7,8.5,25.5,8.5z M15.3,8.6
		c-4,0-7.3,3.3-7.3,7.3c0,2.4,1.1,4.5,2.9,5.8c0.7-1.4,2.2-2.4,3.9-2.4c0.2,0,0.4,0,0.6,0.1c-0.1-0.5-0.1-0.9-0.1-1.4
		c0-2.3,0.7-4.4,2-6.1C16.5,11,16,9.8,15.8,8.6C15.6,8.6,15.4,8.6,15.3,8.6L15.3,8.6z M38.2,12.9c-1.2,0-2.4,0.3-3.4,0.8
		c0.6,1.3,0.9,2.7,0.9,4.2c0,2.8-1.1,5.3-2.9,7.2c1.3,1.5,3.3,2.4,5.4,2.4c4,0,7.3-3.3,7.3-7.3C45.5,16.2,42.2,12.9,38.2,12.9
		L38.2,12.9z M7.2,13.9c-3.7,0-6.7,3-6.7,6.7s3,6.7,6.7,6.7c1.4,0,2.7-0.4,3.8-1.2c-0.4-0.7-0.7-1.5-0.7-2.4c0-0.5,0.1-0.9,0.2-1.3
		c-2-1.5-3.4-3.9-3.4-6.5c0-0.7,0.1-1.3,0.3-2C7.4,13.9,7.3,13.9,7.2,13.9L7.2,13.9z M46.8,19.7c-0.2,0-0.4,0-0.6,0.1
		c0,0.2,0,0.3,0,0.5c0,2.1-0.8,4.1-2.2,5.5c0.7,0.8,1.7,1.3,2.8,1.3c2,0,3.7-1.6,3.7-3.7S48.8,19.7,46.8,19.7L46.8,19.7z M14.8,20
		c-2,0-3.7,1.6-3.7,3.7s1.6,3.7,3.7,3.7c1.6,0,2.9-1,3.4-2.3c-1.3-1.3-2.3-3-2.7-4.9C15.3,20.1,15,20,14.8,20L14.8,20z"/>
</g>
<g>
	<g>
		<path class="st2" d="M3.4,21.6c-1.6,0-2.9,1.3-2.9,2.9s1.3,2.9,2.9,2.9s2.9-1.3,2.9-2.9S5,21.6,3.4,21.6z M3.4,26.6
			c-1.2,0-2.1-1-2.1-2.1c0-1.2,1-2.1,2.1-2.1s2.1,1,2.1,2.1C5.5,25.7,4.6,26.6,3.4,26.6z"/>
		<path class="st2" d="M13.9,21.8h-0.1V22v3.4c0,0.7-0.6,1.2-1.2,1.2c-0.7,0-1.2-0.6-1.2-1.2V22v-0.1h-0.1h-0.5h-0.1V22v3.4
			c0,0.7-0.6,1.2-1.2,1.2c-0.7,0-1.2-0.6-1.2-1.2V22v-0.1H7.9H7.5H7.3V22v3.4c0,1.1,0.9,2,2,2c0.7,0,1.2-0.3,1.6-0.8
			c0.4,0.5,0.9,0.8,1.6,0.8c1.1,0,2-0.9,2-2V22v-0.1h-0.1H13.9z"/>
		<path class="st2" d="M18.5,21.6c-1.6,0-2.9,1.3-2.9,2.9V27v0.1h0.1h0.5h0.1V27v-2.5c0-1.2,1-2.1,2.1-2.1c1.2,0,2.1,1,2.1,2.1V27
			v0.1h0.1h0.5h0.1V27v-2.5C21.4,22.9,20.1,21.6,18.5,21.6z"/>
	</g>
	<g>
		<path class="st3" d="M33.8,21.6c-1.6,0-2.9,1.3-2.9,2.9s1.3,2.9,2.9,2.9s2.9-1.3,2.9-2.9C36.7,22.9,35.4,21.6,33.8,21.6z
			 M33.8,26.6c-1.2,0-2.1-1-2.1-2.1s1-2.1,2.1-2.1c1.2,0,2.1,1,2.1,2.1C35.9,25.7,35,26.6,33.8,26.6z"/>
		<path class="st3" d="M42.7,21.8h-0.1V22v2.5c0,1.2-1,2.1-2.1,2.1c-1.2,0-2.1-1-2.1-2.1V22v-0.1h-0.1h-0.5h-0.1V22v2.5
			c0,1.6,1.3,2.9,2.9,2.9c1.6,0,2.9-1.3,2.9-2.9V22v-0.1h-0.1H42.7z"/>
		<path class="st3" d="M50,17.4v-0.1h-0.1h-0.5h-0.1v0.1v4.2l-2.2,0c-1.6,0-2.9,1.3-2.9,2.9c0,1.6,1.3,2.9,2.9,2.9H48
			c0.9,0,2-0.9,2-2L50,17.4z M49.3,25.4c0,0.6-0.7,1.2-1.3,1.2h-0.9c-1.2,0-2.1-1-2.1-2.1c0-1.2,1-2.1,2.1-2.1l2.2,0
			C49.3,23.1,49.3,24.7,49.3,25.4z"/>
		<path class="st3" d="M29,25.4v-5.7c-0.3-0.1-0.5-0.3-0.7-0.4v6.1c0,1.1,0.9,2,2,2h0.1v-0.1v-0.5v-0.1h-0.1
			C29.6,26.6,29,26.1,29,25.4z"/>
		<path class="st3" d="M23.2,23c0-1.1,0.5-2.1,1.3-2.8c-0.2-0.1-0.5-0.2-0.7-0.4c-0.8,0.8-1.3,1.9-1.3,3.1c0,2.4,2,4.4,4.4,4.4h0.1
			v-0.1v-0.5v-0.1h-0.1C24.8,26.6,23.2,25,23.2,23z"/>
	</g>
</g>
<linearGradient id="SVGID_1_" gradientUnits="userSpaceOnUse" x1="31.7508" y1="26.0443" x2="31.7508" y2="9.959" gradientTransform="matrix(1 0 0 -1 0 30)">
	<stop  offset="0" style="stop-color:#BFD5E0"/>
	<stop  offset="1" style="stop-color:#90ACBB"/>
</linearGradient>
<path class="st4" d="M23.3,8.9c-0.2-0.3-0.3-0.7-0.3-1c0-1.1,0.9-2.1,2.1-2.1c0.4,0,0.8,0.1,1.1,0.3C26,6.7,25.9,7.3,25.9,8
	c0,0.1,0,0.2,0,0.4c-0.1,0-0.2,0-0.2,0C24.8,8.3,24,8.5,23.3,8.9z M22.9,17c-1.2-0.9-2-2.3-2-3.9c0-0.4,0.1-0.8,0.1-1.2
	c0,0-0.1,0-0.1,0c-2.2,0-4,1.8-4,4c0,2.2,1.8,4,4,4c0.8,0,1.6-0.3,2.3-0.7c-0.3-0.4-0.4-0.9-0.4-1.4C22.7,17.5,22.8,17.2,22.9,17z
	 M23,16.6c0.4-0.7,1-1.2,1.8-1.4c0.1,0,0.1,0,0.2,0c0.1,0,0.2,0,0.2,0c0,0,0.1,0,0.1,0c0.1,0,0.2,0,0.4,0c0-0.3-0.1-0.5-0.1-0.8
	c0-1.3,0.4-2.6,1.2-3.6c-0.2-0.2-0.3-0.4-0.4-0.7c0-0.1-0.1-0.1-0.1-0.2c0-0.1-0.1-0.1-0.1-0.2C26.1,9.4,26,9.1,26,8.8
	c-0.1,0-0.2,0-0.3,0c-0.8,0-1.5,0.2-2.1,0.5c-0.1,0-0.1,0.1-0.2,0.1c-0.1,0-0.1,0.1-0.2,0.1c-0.7,0.5-1.3,1.2-1.6,2
	c0,0.1-0.1,0.1-0.1,0.2c0,0.1,0,0.1-0.1,0.2c-0.1,0.4-0.2,0.7-0.2,1.1C21.3,14.5,22,15.8,23,16.6z M37.1,11.4
	c0.6-0.3,1.2-0.5,1.9-0.5c-0.2-2-1.9-3.7-4-3.7c-0.1,0-0.2,0-0.2,0c0,0.2,0.1,0.5,0.1,0.7c0,0.4,0,0.7-0.1,1.1
	C35.7,9.6,36.5,10.4,37.1,11.4z M26.4,8.6c0,0.1,0,0.2,0,0.2c0,0.2,0.1,0.4,0.2,0.5c0,0.1,0.1,0.2,0.1,0.2c0,0.1,0.1,0.1,0.1,0.2
	c0.1,0.2,0.2,0.4,0.4,0.6c0.3-0.3,0.6-0.6,0.9-0.9c0.1,0,0.1-0.1,0.2-0.1c0.1,0,0.1-0.1,0.2-0.1c0.9-0.6,2-0.9,3.2-0.9
	c0,0,0.1,0,0.1,0c0.1,0,0.2,0,0.2,0c0.1,0,0.2,0,0.3,0c0.7,0.1,1.4,0.2,2,0.5c0.1-0.3,0.1-0.6,0.1-0.9c0-0.2,0-0.4-0.1-0.7
	c0-0.1,0-0.1,0-0.2c0-0.1,0-0.1-0.1-0.2c-0.5-1.7-2-2.9-3.9-2.9c-1.5,0-2.8,0.8-3.5,2.1c0,0.1-0.1,0.1-0.1,0.2
	c0,0.1-0.1,0.1-0.1,0.2c-0.2,0.5-0.3,1-0.3,1.5c0,0.1,0,0.3,0,0.4C26.4,8.4,26.4,8.5,26.4,8.6z M44.4,15.4c-0.1,0-0.2,0-0.4,0
	c0,0.1,0,0.2,0,0.3c0,1.3-0.5,2.4-1.3,3.3c0.4,0.5,1,0.8,1.7,0.8c1.2,0,2.2-1,2.2-2.2C46.6,16.3,45.6,15.4,44.4,15.4z M43.6,15.5
	c0-0.1,0-0.2,0-0.2c0-0.1,0-0.2,0-0.2c-0.3-2-2-3.6-4.1-3.7c-0.1,0-0.1,0-0.2,0c0,0,0,0-0.1,0c-0.1,0-0.2,0-0.2,0
	c-0.6,0-1.2,0.2-1.7,0.5c0.3,0.7,0.5,1.5,0.5,2.3c0,0.1,0,0.2,0,0.2c0,0,0,0,0,0.1c0,0.1,0,0.2,0,0.3c-0.1,1.5-0.7,2.9-1.7,3.9
	c0.8,0.9,2,1.4,3.2,1.4c1.1,0,2.1-0.4,2.9-1.1c0.1-0.1,0.1-0.1,0.2-0.2c0.1-0.1,0.1-0.1,0.2-0.2c0.7-0.8,1.1-1.8,1.1-2.9
	C43.6,15.6,43.6,15.6,43.6,15.5z M26.6,17.6c0-0.1-0.1-0.1-0.1-0.2c-0.3-0.5-0.5-1.1-0.7-1.7c-0.1,0-0.3,0-0.4,0c0,0,0,0,0,0
	c-0.1,0-0.2,0-0.2,0c-0.1,0-0.2,0-0.2,0c-0.6,0.2-1.2,0.6-1.5,1.2c0,0.1-0.1,0.1-0.1,0.2c0,0.1,0,0.1-0.1,0.2c0,0.2-0.1,0.3-0.1,0.5
	c0,0.4,0.1,0.8,0.3,1.1c0,0.1,0.1,0.1,0.1,0.2c0,0.1,0.1,0.1,0.1,0.2c0.4,0.4,1,0.7,1.6,0.7c0.9,0,1.7-0.6,2-1.4
	c-0.2-0.2-0.5-0.5-0.7-0.8C26.7,17.7,26.7,17.6,26.6,17.6z M37.3,14.8c0-0.1,0-0.2,0-0.3c0,0,0-0.1,0-0.1c0-0.8-0.2-1.6-0.5-2.3
	c0-0.1-0.1-0.1-0.1-0.2c0-0.1-0.1-0.1-0.1-0.2c-0.5-0.9-1.2-1.7-2.1-2.2c-0.1,0-0.1-0.1-0.2-0.1c-0.1,0-0.1-0.1-0.2-0.1
	c-0.7-0.3-1.5-0.5-2.3-0.5c0,0-0.1,0-0.1,0c-0.1,0-0.1,0-0.2,0c-0.1,0-0.2,0-0.3,0c-0.9,0.1-1.7,0.3-2.4,0.8c-0.1,0-0.1,0.1-0.2,0.1
	c-0.1,0-0.1,0.1-0.2,0.1c-0.4,0.3-0.7,0.6-1,0.9c0,0.1-0.1,0.1-0.1,0.2c0,0.1-0.1,0.1-0.1,0.2c-0.7,0.9-1,2-1,3.2
	c0,0.3,0,0.6,0.1,0.9c0,0.1,0,0.2,0.1,0.3c0,0.1,0,0.2,0.1,0.3c0.1,0.5,0.3,1,0.6,1.4c0,0.1,0.1,0.1,0.1,0.2c0,0.1,0.1,0.1,0.1,0.2
	c0.1,0.1,0.2,0.3,0.3,0.4c0.1,0.1,0.1,0.1,0.2,0.2c0.1,0.1,0.1,0.1,0.2,0.2c1,0.9,2.3,1.5,3.8,1.5c1.4,0,2.7-0.5,3.7-1.4
	c0.1,0,0.1-0.1,0.2-0.2c0.1-0.1,0.1-0.1,0.2-0.2c0.8-0.8,1.4-1.9,1.5-3.2C37.3,15,37.3,14.9,37.3,14.8z"/>
</svg>
